<svg xmlns="http://www.w3.org/2000/svg" width="544.293" height="915.629" viewBox="0 0 544.293 915.629">
  <path id="Vector_3.2" data-name="Vector 3.2" d="M273.66,1V37.587c-2.121,43.745-36.056,69.9-73.7,69.9-18.028-.9-52.494,0-108.965,0-47.457,0-92.527,40.123-89.611,97.92v164.64c3.447,69.771,47.457,97.336,115.327,97.336l302.238,3.675c78.741.53,121.16,44.01,121.16,111.351,0,29.595,1.06,123.066,0,141.309-1.241,21.367-1.856,45.336-30.489,71.052-24.366,21.885-59.917,29.115-80.332,29.163-76.8.181-113.331.434-145.57,0s-29.945,92.633-29.945,92.633" transform="translate(1.255 -1)" fill="none" stroke="#40d0d3" stroke-width="5" stroke-dasharray="10 15"/>
</svg>
