<svg xmlns="http://www.w3.org/2000/svg" width="22.898" height="22.897" viewBox="0 0 22.898 22.897">
  <g id="Group_42396" data-name="Group 42396" transform="translate(-4939.158 3554)">
    <path id="Path_92847" data-name="Path 92847" d="M176.733,96.421a10.119,10.119,0,1,1-7.155,2.964,10.12,10.12,0,0,1,7.155-2.964m0-1.337h0a4.9,4.9,0,1,1,0,.007Z" transform="translate(4773.902 -3649.083)"/>
    <path id="Path_92848" data-name="Path 92848" d="M340.455,254.615a.665.665,0,0,1-.665-.665v-7.408a.669.669,0,1,1,1.337,0v7.408a.665.665,0,0,1-.672.665Z" transform="translate(4610.181 -3790.531)"/>
    <path id="Path_92849" data-name="Path 92849" d="M334.927,186.8a1.07,1.07,0,1,1-1.07-1.07,1.07,1.07,0,0,1,1.07,1.07" transform="translate(4616.749 -3734.118)"/>
  </g>
</svg>
