<svg xmlns="http://www.w3.org/2000/svg" width="24.087" height="15.116" viewBox="0 0 24.087 15.116">
  <defs>
    <style>
      .cls-1 {
        fill: #40d0d3;
      }
    </style>
  </defs>
  <g id="Group_42208" data-name="Group 42208" transform="translate(22175.029 12976)">
    <path id="Path_86324" data-name="Path 86324" class="cls-1" d="M108.181,121.7l-4.844-3.322a.461.461,0,0,0-.507,0l-2.283,1.547v-2.587h.659a.447.447,0,0,0,.254-.812l-4.87-3.322a.461.461,0,0,0-.507,0l-4.844,3.322a.447.447,0,0,0,.254.812h.659v2.612l-2.283-1.572a.461.461,0,0,0-.507,0l-4.87,3.322a.447.447,0,0,0,.254.812h.659v5.275a.455.455,0,0,0,.456.456h9.46V125.6a.227.227,0,0,1,.228-.228h1.572a.227.227,0,0,1,.228.228v2.638h9.486a.455.455,0,0,0,.456-.456v-5.275h.659a.438.438,0,0,0,.228-.812Zm-20.265,4.92a.227.227,0,0,1-.228.228H87a.227.227,0,0,1-.228-.228V125.6a.227.227,0,0,1,.228-.228h.685a.227.227,0,0,1,.228.228Zm0-2.587a.227.227,0,0,1-.228.228H87a.227.227,0,0,1-.228-.228v-1.014a.227.227,0,0,1,.228-.228h.685a.227.227,0,0,1,.228.228Zm2.232,2.587a.227.227,0,0,1-.228.228h-.685a.227.227,0,0,1-.228-.228V125.6a.227.227,0,0,1,.228-.228h.685a.227.227,0,0,1,.228.228Zm0-2.587a.227.227,0,0,1-.228.228h-.685a.227.227,0,0,1-.228-.228v-1.014a.227.227,0,0,1,.228-.228h.685a.227.227,0,0,1,.228.228Zm2.257,2.587a.227.227,0,0,1-.228.228h-.685a.227.227,0,0,1-.228-.228V125.6a.227.227,0,0,1,.228-.228h.685a.227.227,0,0,1,.228.228Zm0-2.587a.227.227,0,0,1-.228.228h-.685a.227.227,0,0,1-.228-.228v-1.014a.227.227,0,0,1,.228-.228h.685a.227.227,0,0,1,.228.228Zm2.257,0a.227.227,0,0,1-.228.228H93.75a.227.227,0,0,1-.228-.228v-1.014a.227.227,0,0,1,.228-.228h.685a.227.227,0,0,1,.228.228Zm0-2.587a.227.227,0,0,1-.228.228H93.75a.227.227,0,0,1-.228-.228v-1.014a.227.227,0,0,1,.228-.228h.685a.227.227,0,0,1,.228.228Zm0-2.587a.227.227,0,0,1-.228.228H93.75a.227.227,0,0,1-.228-.228v-1.014a.227.227,0,0,1,.228-.228h.685a.227.227,0,0,1,.228.228Zm2.232,5.174a.227.227,0,0,1-.228.228h-.685a.227.227,0,0,1-.228-.228v-1.014a.227.227,0,0,1,.228-.228h.685a.227.227,0,0,1,.228.228Zm0-2.587a.227.227,0,0,1-.228.228h-.685a.227.227,0,0,1-.228-.228v-1.014a.227.227,0,0,1,.228-.228h.685a.227.227,0,0,1,.228.228Zm0-2.587a.227.227,0,0,1-.228.228h-.685a.227.227,0,0,1-.228-.228v-1.014a.227.227,0,0,1,.228-.228h.685a.227.227,0,0,1,.228.228Zm2.257,5.174a.227.227,0,0,1-.228.228h-.685a.227.227,0,0,1-.228-.228v-1.014a.227.227,0,0,1,.228-.228h.685a.227.227,0,0,1,.228.228Zm0-2.587a.227.227,0,0,1-.228.228h-.685a.227.227,0,0,1-.228-.228v-1.014a.227.227,0,0,1,.228-.228h.685a.227.227,0,0,1,.228.228Zm0-2.587a.227.227,0,0,1-.228.228h-.685a.227.227,0,0,1-.228-.228v-1.014a.227.227,0,0,1,.228-.228h.685a.227.227,0,0,1,.228.228Zm2.232,7.761a.227.227,0,0,1-.228.228h-.685a.227.227,0,0,1-.228-.228V125.6a.227.227,0,0,1,.228-.228h.685a.227.227,0,0,1,.228.228Zm0-2.587a.227.227,0,0,1-.228.228h-.685a.227.227,0,0,1-.228-.228v-1.014a.227.227,0,0,1,.228-.228h.685a.227.227,0,0,1,.228.228Zm2.257,2.587a.227.227,0,0,1-.228.228h-.685a.227.227,0,0,1-.228-.228V125.6a.227.227,0,0,1,.228-.228h.685a.227.227,0,0,1,.228.228Zm0-2.587a.227.227,0,0,1-.228.228h-.685a.227.227,0,0,1-.228-.228v-1.014a.227.227,0,0,1,.228-.228h.685a.227.227,0,0,1,.228.228Zm2.232,2.587a.227.227,0,0,1-.228.228h-.685a.227.227,0,0,1-.228-.228V125.6a.227.227,0,0,1,.228-.228h.685a.227.227,0,0,1,.228.228Zm0-2.587a.227.227,0,0,1-.228.228h-.685a.227.227,0,0,1-.228-.228v-1.014a.227.227,0,0,1,.228-.228h.685a.227.227,0,0,1,.228.228Z" transform="translate(-22259.332 -13089.124)"/>
  </g>
</svg>
